<svg version="1" xmlns="http://www.w3.org/2000/svg" width="400" height="400" viewBox="0 0 300.000000 300.000000"><path d="M135 .3c-.3.3-2.9.8-5.9 1.1C116.3 2.9 96.7 8.9 84.2 15c-36.4 17.7-65 50.8-77 89C1.8 120.8.6 128.9.6 148c-.1 21.6.6 27.5 5.1 43 7.3 25.4 19.9 46.8 38.2 65 21.7 21.6 45.2 34.3 76.6 41.2 13.5 3 44.4 3.3 57.5.5 51.8-11 92-44.3 111.5-92.2 2-4.9 5.4-15.1 5.9-17.9.2-1.2.9-4.4 1.6-7.1 1.9-8.2 2.5-16.2 2.5-31.5 0-18-.8-24.1-5.2-40-13-47.1-50.3-86.2-96.8-101.4-16-5.2-24.9-6.7-44-7.2-10-.3-18.3-.3-18.5-.1zm37.4 21.2c47 8.8 84.6 40.8 100.4 85.5 21.4 60.8-5.4 128.6-62.9 158.8-28 14.7-58.9 18.3-92.8 10.8-1.3-.3-4.7-1.3-7.5-2.2-23.8-7.8-45.8-22.8-61.8-42.5-3.9-4.8-13.8-19.5-13.8-20.5 0-.3-1.5-3.8-3.4-7.7-4.4-9.3-8.3-21.9-9.7-31-.6-4-1.2-8.3-1.5-9.7-.6-3.7-.5-21.8.1-27 4.6-35.5 20.6-64.8 47.5-87.1 18.4-15.3 44.1-26.3 66.8-28.5 3.1-.4 5.8-.7 6-.8.9-.9 25.4.5 32.6 1.9z"/><path d="M132.3 32.7c-20.5 3-41.9 12.5-57.3 25.2-20.2 16.9-33.4 37.3-39.8 61.6-3 11.7-3.3 13.7-3.7 28-1 33.3 10.8 62.9 34.4 86.5 16.5 16.5 35.1 26.9 56.6 31.8 12 2.7 16.3 3.2 27.5 3.2 24.9.1 48.5-7.4 69-21.8 8.6-6 22.4-20 28.4-28.6 8.7-12.6 16.3-30.2 19-44.1.4-1.7.9-4.1 1.2-5.5 1.1-4.5 1.3-29.3.3-35.5-6.2-39.7-30-72.3-65.7-90-8-4-22.3-8.9-29.1-9.9-1.4-.3-4.6-.8-7.1-1.2-7.8-1.2-24.1-1.1-33.7.3zM168.8 51c29.2 5.9 53.8 23.1 68.4 48 23.3 39.5 17.3 89.2-14.7 121.6-3.8 3.9-9.5 9-12.5 11.2-10.9 8.1-30.1 16.2-41.8 17.8-2.6.3-5 .8-5.3 1-1.1.6-22 .5-25.4-.1-10.3-1.9-14.8-3-21-5.2-23.9-8.6-44.7-27-56.3-49.8-3-6.1-6.9-16.8-7.8-21.5-.3-1.4-.7-3.1-.9-3.8-.6-1.7-1.8-12.7-1.9-18.7-.2-4.4.6-13 1.8-21 .7-4.5 4.7-16.8 5.8-18.3.6-.6.8-1.2.4-1.2-.7 0 4.3-9.4 8.2-15.5 15.8-24.1 41.5-40.7 69.6-45 9.2-1.4 24.9-1.2 33.4.5z"/><path d="M97 125.7c-3.8.6-10.2 5.4-13.3 10.1-2.4 3.5-2.9 5.4-3 10.5-.1 12.8 8.7 22 21.3 22 18.3.1 28.3-21.3 16.4-35.1-5.2-6.1-12.7-8.7-21.4-7.5zM191 126.5c-20 6.5-19.2 35.7 1.1 41.3 17.2 4.6 32.3-12.9 25.4-29.4-4.2-10.1-15.8-15.3-26.5-11.9zM145.5 180.3c-16.5 4-22.6 24.3-10.8 36.2 8.6 8.7 21.5 8.6 30.6-.3 8.8-8.6 7.9-24.3-2-31.8-4.7-3.6-12.5-5.4-17.8-4.1z"/></svg>