<svg version="1" xmlns="http://www.w3.org/2000/svg" width="400" height="400" viewBox="0 0 300.000000 300.000000"><path d="M132.5.6c-9.2 1.4-23.9 5-32.8 8C57.8 23.1 23.1 57.8 8.6 99.7 2 118.9.5 128.1.5 150s1.5 31.1 8.1 50.3c14.5 41.9 49.2 76.6 91.1 91.1 19.2 6.6 28.4 8.1 50.3 8.1s31.1-1.5 50.3-8.1c41.9-14.5 76.6-49.2 91.1-91.1 6.6-19.2 8.1-28.4 8.1-50.3s-1.5-31.1-8.1-50.3C277 58.3 242.6 23.5 201.5 9c-17.9-6.3-28.2-8.1-48-8.5-9.9-.2-19.3-.1-21 .1zm39.6 21c16.3 2.6 36.5 10.6 49.7 19.5 28.8 19.6 48.4 48.7 55.8 82.9 2.6 12 2.6 40 0 52-7.4 34.2-27 63.3-55.8 82.9-13 8.8-32.8 16.6-49.6 19.7-11.4 2-34 2-45.4 0-55.1-10-98.2-54.1-106.2-108.7C12.7 116.7 37 65.2 82.6 38c27.4-16.3 57.1-21.7 89.5-16.4z"/><path d="M135.5 32.1c-16.5 2.1-34.2 8.4-48.3 17.1-9.3 5.8-25 20.1-31.6 28.8-23.8 31.2-30.8 72.6-18.5 109.4 13 38.9 43.2 67.1 83.7 78.3 9 2.5 11.1 2.7 29.2 2.7s20.2-.2 29.2-2.7c40.5-11.2 70.7-39.4 83.7-78.3 12.3-36.7 5.3-78.4-18.4-109.4-6.7-8.7-22.4-23-31.7-28.8-22.9-14.2-51-20.4-77.3-17.1zm33.5 19c33.3 6.2 61.7 29.5 75.1 61.9 5.3 12.7 7.2 24.2 6.6 41-.4 9.9-1.1 16.7-2.5 21.5-10.7 38.8-41.5 67.3-80.1 74-51.7 9.1-101.4-22.7-115.3-73.6-2-7.3-2.3-10.6-2.2-25.9 0-20.5 1.5-27.5 9-42.9 6-12.7 11.4-20 22.1-30.1 23.6-22.4 55.4-31.8 87.3-25.9z"/><path d="M95.6 126.2c-6 1.6-13 9.1-14.5 15.6-3.3 13.7 6.7 26.5 20.9 26.5s24.2-12.8 20.9-26.5c-1.6-6.9-8.4-13.9-15.1-15.6-5.4-1.4-6.9-1.4-12.2 0zM190.3 126.6c-7.6 2.8-14.3 12.3-14.3 20.4 0 9.5 7.8 19 17.2 20.9 9.7 2.1 19.6-2.7 23.8-11.4 3.2-6.7 2.6-15.8-1.6-21.7-5.6-8-16.3-11.5-25.1-8.2zM140.1 182.2c-5.3 2.6-9.5 8.2-11.1 14.8-3 12.7 7.5 25.9 20.8 26 13.5 0 24.3-13.2 21.2-26-3.4-14.1-18.1-21.2-30.9-14.8z"/></svg>