<?xml version="1.0" encoding="utf-8"?>
<!-- Generator: Adobe Illustrator 21.1.0, SVG Export Plug-In . SVG Version: 6.00 Build 0)  -->
<svg version="1.1" xmlns="http://www.w3.org/2000/svg" xmlns:xlink="http://www.w3.org/1999/xlink" x="0px" y="0px"
	 viewBox="0 0 3237.7 625" style="enable-background:new 0 0 3237.7 625;" xml:space="preserve">
<style type="text/css">
	.st0{fill:#FFFFFF;}
	.st1{fill:#FF0000;}
</style>
<g id="Calque_2">
</g>
<g id="Calque_1">
	<title>Logo Produkson</title>
	<g id="RONDS">
		<g id="ROND_1">
			<circle class="st0" cx="420.7" cy="376.5" r="44.7"/>
			<circle class="st0" cx="203.5" cy="376.5" r="44.7"/>
			<circle class="st0" cx="312.6" cy="441" r="44.7"/>
			<circle class="st0" cx="194.6" cy="256.5" r="44.7"/>
			<circle class="st0" cx="430.1" cy="256.5" r="44.7"/>
			<path class="st0" d="M312.5,65.6C175.8,65.6,65,176.4,65,313.1s110.8,247.5,247.5,247.5S560,449.8,560,313.1
				S449.2,65.6,312.5,65.6z M313.5,523.7c-116.3,0-210.6-94.3-210.6-210.6s94.3-210.6,210.6-210.6s210.6,94.3,210.6,210.6
				S429.8,523.7,313.5,523.7z"/>
			<path class="st0" d="M312.5,0C139.9,0,0,139.9,0,312.5S139.9,625,312.5,625S625,485.1,625,312.5S485.1,0,312.5,0z M311.5,585
				C161,585,39,463,39,312.5S161,40,311.5,40S584,162,584,312.5S462,585,311.5,585z"/>
		</g>
		<g id="ROND2">
			<circle class="st0" cx="1183.5" cy="419.6" r="44.7"/>
			<circle class="st0" cx="1083.5" cy="306.1" r="44.7"/>
			<circle class="st0" cx="1282.9" cy="306.1" r="44.7"/>
			<path class="st0" d="M1183.5,65.6C1046.8,65.6,936,176.4,936,313.1s110.8,247.5,247.5,247.5S1431,449.8,1431,313.1
				S1320.2,65.6,1183.5,65.6z M1184.5,523.7c-116.3,0-210.6-94.3-210.6-210.6s94.3-210.6,210.6-210.6s210.6,94.3,210.6,210.6
				S1300.8,523.7,1184.5,523.7z"/>
			<path class="st0" d="M1183.5,0C1010.9,0,871,139.9,871,312.5S1010.9,625,1183.5,625S1496,485.1,1496,312.5S1356.1,0,1183.5,0z
				 M1182.5,585C1032,585,910,463,910,312.5S1032,40,1182.5,40S1455,162,1455,312.5S1333,585,1182.5,585z"/>
		</g>
		<g id="ROND3">
			<circle class="st0" cx="2054.5" cy="312.5" r="44.7"/>
			<path class="st0" d="M2054.5,0C1881.9,0,1742,139.9,1742,312.5S1881.9,625,2054.5,625S2367,485.1,2367,312.5S2227.1,0,2054.5,0z
				 M2053.5,585C1903,585,1781,463,1781,312.5S1903,40,2053.5,40S2326,162,2326,312.5S2204,585,2053.5,585z"/>
			<path class="st0" d="M2056.2,101.9c108.7,0,198.2,82.4,209.4,188.1h36c-11.4-126.2-117.4-225-246.5-225s-235.1,98.8-246.5,225h38
				C1858,184.3,1947.5,101.9,2056.2,101.9z M2265.7,335l-0.1,0.5c-11.4,105.5-100.8,187.6-209.4,187.6
				c-108.7,0-198.2-82.4-209.4-188.1h-38c11.4,126.2,117.4,225,246.5,225c128.9,0,234.8-98.6,246.4-224.5c0-0.2,0-0.3,0.1-0.5
				H2265.7z"/>
			<path class="st0" d="M2054.5,142.6c-93.5,0-169.4,75.8-169.4,169.4c0,93.5,75.8,169.4,169.4,169.4s169.4-75.8,169.4-169.4
				S2148,142.6,2054.5,142.6L2054.5,142.6z M2053.8,446.5c-74.6,0-135.1-60.5-135.1-135.1c0-74.6,60.5-135.1,135.1-135.1
				c74.6,0,135.1,60.5,135.1,135.1C2188.9,386,2128.4,446.5,2053.8,446.5C2053.8,446.5,2053.8,446.5,2053.8,446.5L2053.8,446.5z"/>
		</g>
		<g id="ROND4">
			<path class="st0" d="M2925.2,65.6c-136.7,0-247.5,110.8-247.5,247.5s110.8,247.5,247.5,247.5s247.5-110.8,247.5-247.5
				S3061.9,65.6,2925.2,65.6z M2926.2,523.7c-116.3,0-210.6-94.3-210.6-210.6s94.3-210.6,210.6-210.6s210.6,94.3,210.6,210.6
				S3042.5,523.7,2926.2,523.7z"/>
			<path class="st0" d="M2925.2,0c-172.6,0-312.5,139.9-312.5,312.5S2752.6,625,2925.2,625s312.5-139.9,312.5-312.5
				S3097.8,0,2925.2,0z M2924.2,585c-150.5,0-272.5-122-272.5-272.5S2773.7,40,2924.2,40s272.5,122,272.5,272.5
				S3074.7,585,2924.2,585z"/>
			<polygon class="st0" points="3074,214.5 3074,396.5 2774,396.5 2774,214.5 2817,214.5 2817,261.5 2832,261.5 2832,214.5 
				2846,214.5 2846,261.5 2860,261.5 2860,214.5 2874,214.5 2874,261.5 2888,261.5 2888,214.5 2903,214.5 2903,261.5 2917,261.5 
				2917,214.5 2931,214.5 2931,261.5 2945,261.5 2945,214.5 2960,214.5 2960,261.5 2974,261.5 2974,214.5 2988,214.5 2988,261.5 
				3002,261.5 3002,214.5 3016,214.5 3016,261.5 3031,261.5 3031,214.5 			"/>
			<rect x="2836" y="396.5" class="st0" width="176" height="31"/>
			<rect x="2866" y="427.5" class="st0" width="116" height="32"/>
			<polygon class="st1" points="2974,214.5 2974,214.5 2960,214.5 2960,261.5 2960,261.5 2960,214.5 			"/>
			<polygon class="st1" points="2860,214.5 2860,214.5 2846,214.5 2846,261.5 2846,261.5 2846,214.5 			"/>
			<polygon class="st1" points="2917,214.5 2917,214.5 2903,214.5 2903,261.5 2903,261.5 2903,214.5 			"/>
		</g>
	</g>
</g>
</svg>
